<svg width="48" height="48" viewBox="0 0 48 48" fill="none" xmlns="http://www.w3.org/2000/svg">
<path d="M8.00001 42C7.43334 42 6.95801 41.808 6.57401 41.424C6.19001 41.04 5.99867 40.5653 6.00001 40C6.00001 39.4333 6.19201 38.958 6.57601 38.574C6.96001 38.19 7.43467 37.9987 8.00001 38H40C40.5667 38 41.042 38.192 41.426 38.576C41.81 38.96 42.0013 39.4347 42 40C42 40.5667 41.808 41.042 41.424 41.426C41.04 41.81 40.5653 42.0013 40 42H8.00001ZM20 34C19.4333 34 18.958 33.808 18.574 33.424C18.19 33.04 17.9987 32.5653 18 32C18 31.4333 18.192 30.958 18.576 30.574C18.96 30.19 19.4347 29.9987 20 30H40C40.5667 30 41.042 30.192 41.426 30.576C41.81 30.96 42.0013 31.4347 42 32C42 32.5667 41.808 33.042 41.424 33.426C41.04 33.81 40.5653 34.0013 40 34H20ZM8.00001 26C7.43334 26 6.95801 25.808 6.57401 25.424C6.19001 25.04 5.99867 24.5653 6.00001 24C6.00001 23.4333 6.19201 22.958 6.57601 22.574C6.96001 22.19 7.43467 21.9987 8.00001 22H40C40.5667 22 41.042 22.192 41.426 22.576C41.81 22.96 42.0013 23.4347 42 24C42 24.5667 41.808 25.042 41.424 25.426C41.04 25.81 40.5653 26.0013 40 26H8.00001ZM20 18C19.4333 18 18.958 17.808 18.574 17.424C18.19 17.04 17.9987 16.5653 18 16C18 15.4333 18.192 14.958 18.576 14.574C18.96 14.19 19.4347 13.9987 20 14H40C40.5667 14 41.042 14.192 41.426 14.576C41.81 14.96 42.0013 15.4347 42 16C42 16.5667 41.808 17.042 41.424 17.426C41.04 17.81 40.5653 18.0013 40 18H20ZM8.00001 10C7.43334 10 6.95801 9.80801 6.57401 9.42401C6.19001 9.04001 5.99867 8.56534 6.00001 8.00001C6.00001 7.43334 6.19201 6.95801 6.57601 6.57401C6.96001 6.19001 7.43467 5.99867 8.00001 6.00001H40C40.5667 6.00001 41.042 6.19201 41.426 6.57601C41.81 6.96001 42.0013 7.43467 42 8.00001C42 8.56667 41.808 9.04201 41.424 9.42601C41.04 9.81001 40.5653 10.0013 40 10H8.00001Z" fill="#EDE5D8"/>
</svg>
