<svg width="31" height="31" viewBox="0 0 31 31" fill="none" xmlns="http://www.w3.org/2000/svg">
<rect width="31" height="31" rx="15.5" fill="white"/>
<g clip-path="url(#clip0_25_24)">
<path d="M26.4997 16.2059C26.4997 15.3045 26.4265 14.6468 26.2681 13.9647H15.9697V18.0329H22.0146C21.8928 19.0439 21.2347 20.5664 19.7722 21.5895L19.7517 21.7257L23.0078 24.2467L23.2334 24.2692C25.3053 22.3569 26.4997 19.5432 26.4997 16.2059" fill="#4285F4"/>
<path d="M15.9699 26.9244C18.9314 26.9244 21.4176 25.9499 23.2336 24.2691L19.7723 21.5894C18.8461 22.2349 17.603 22.6856 15.9699 22.6856C13.0693 22.6856 10.6074 20.7734 9.72986 18.1302L9.60122 18.1412L6.21542 20.7599L6.17114 20.8829C7.97486 24.4639 11.6799 26.9244 15.9699 26.9244Z" fill="#34A853"/>
<path d="M9.7299 18.1303C9.49834 17.4482 9.36433 16.7174 9.36433 15.9622C9.36433 15.207 9.49834 14.4762 9.71772 13.7941L9.71158 13.6489L6.28335 10.988L6.17119 11.0414C5.42779 12.5274 5.00122 14.1961 5.00122 15.9622C5.00122 17.7284 5.42779 19.397 6.17119 20.883L9.7299 18.1303" fill="#FBBC05"/>
<path d="M15.9699 9.23869C18.0295 9.23869 19.4189 10.1278 20.2111 10.8709L23.3067 7.85018C21.4055 6.08405 18.9314 5 15.9699 5C11.6799 5 7.97486 7.46039 6.17114 11.0414L9.71767 13.7941C10.6074 11.151 13.0693 9.23869 15.9699 9.23869" fill="#EB4335"/>
</g>
<defs>
<clipPath id="clip0_25_24">
<rect x="5" y="5" width="21.5111" height="22" rx="10.7556" fill="white"/>
</clipPath>
</defs>
</svg>
