<svg width="48" height="48" viewBox="0 0 48 48" fill="none" xmlns="http://www.w3.org/2000/svg">
<path d="M20 40C19.4333 40 18.958 39.808 18.574 39.424C18.19 39.04 17.9987 38.5653 18 38V28C15.2333 28 12.8747 27.0247 10.924 25.074C8.97333 23.1233 7.99867 20.7653 8 18C8 15.2333 8.97533 12.8747 10.926 10.924C12.8767 8.97333 15.2347 7.99867 18 8H34C34.5667 8 35.042 8.192 35.426 8.576C35.81 8.96 36.0013 9.43467 36 10C36 10.5667 35.808 11.042 35.424 11.426C35.04 11.81 34.5653 12.0013 34 12H32V38C32 38.5667 31.808 39.042 31.424 39.426C31.04 39.81 30.5653 40.0013 30 40C29.4333 40 28.958 39.808 28.574 39.424C28.19 39.04 27.9987 38.5653 28 38V12H22V38C22 38.5667 21.808 39.042 21.424 39.426C21.04 39.81 20.5653 40.0013 20 40Z" fill="#EDE5D8"/>
</svg>
