<svg width="27" height="27" viewBox="0 0 27 27" fill="none" xmlns="http://www.w3.org/2000/svg">
<path d="M25.95 25.95C25.3701 26.5299 24.4299 26.5299 23.85 25.95L17.5483 19.6483C16.3538 18.4538 14.4526 18.4042 12.8625 18.975C11.8875 19.325 10.85 19.5 9.75 19.5C7.025 19.5 4.719 18.556 2.832 16.668C0.945 14.78 0.001 12.474 0 9.75C0 7.025 0.944 4.719 2.832 2.832C4.72 0.945 7.026 0.001 9.75 0C12.475 0 14.781 0.944 16.668 2.832C18.555 4.72 19.499 7.026 19.5 9.75C19.5 10.85 19.325 11.8875 18.975 12.8625C18.4042 14.4526 18.4538 16.3538 19.6483 17.5483L25.95 23.85C26.5299 24.4299 26.5299 25.3701 25.95 25.95ZM9.75 16.5C11.625 16.5 13.219 15.8435 14.532 14.5305C15.845 13.2175 16.501 11.624 16.5 9.75C16.5 7.875 15.8435 6.281 14.5305 4.968C13.2175 3.655 11.624 2.999 9.75 3C7.875 3 6.281 3.6565 4.968 4.9695C3.655 6.2825 2.999 7.876 3 9.75C3 11.625 3.6565 13.219 4.9695 14.532C6.2825 15.845 7.876 16.501 9.75 16.5Z" fill="#50586B"/>
</svg>
